<svg
   preserveAspectRatio="xMinYMin meet"
   viewBox="0 0 638.11405 458.00104"
   width="100%"
   height="100%"
   id="logo"
   version="1.1"
   >
  <g transform="translate(881.80253,16.298843)">
    <g class="logo">
      <path
         id="s"
         d="m -668.40234,-16.296875 c -8.63036,-0.02924 -17.81759,0.266747 -27.5918,0.927734 -115.17753,7.7889631 -192.40806,73.183649 -185.36328,134.855471 8.0268,70.26872 56.20861,85.8499 85.35742,89.90429 25.84605,3.595 78.40425,2.45314 148.49219,22.72852 35.0935,10.15201 71.96351,45.11491 71.88281,62.02344 -0.0918,19.23048 -19.05292,37.40454 -57.74023,37.98047 -33.56485,0.49968 -28.66361,-26.87369 -20.70899,-39.39649 14.76188,-23.23934 51.42095,-11.80202 23.30469,13.61719 23.90659,2.18569 44.69196,-37.02625 3.46484,-37.85937 -43.21161,-0.87322 -52.78948,36.36967 -49.49804,52.52734 2.20493,10.82398 19.56291,35.47809 50.50781,38.38672 105.60087,9.92585 121.65636,-85.45377 61.61914,-114.14844 -56.63153,-24.45578 -119.21652,-37.23771 -180.3125,-42.93164 -50.21365,-4.67974 -122.16078,-5.10323 -125.25781,-84.85156 -1.39953,-36.037798 37.43703,-64.639996 90.24383,-79.112863 23.42319,-6.419643 56.57288,-10.467686 90.06737,-11.275812 19.36048,-0.467113 62.43386,2.198695 75.13413,13.107629 29.39293,25.247146 15.69385,74.353356 -11.86213,110.081936 -6.37086,8.26035 -23.44823,23.24061 -31.65372,23.86505 -3.30935,0.25184 -7.42245,-1.70696 -9.19316,-4.10344 20.37727,-12.21329 42.65979,-29.76475 32.6641,-41.58292 -5.86644,-6.93605 -14.7527,-5.98266 -22.53838,-3.89288 -16.78442,4.50518 -31.35545,23.31885 -19.96165,43.32345 -5.11902,3.09531 -10.44708,5.5487 -14.64258,7.54493 -13.06086,6.13397 -7.01693,6.48166 -6.42593,7.62411 0.96619,1.86772 12.52557,-2.76023 24.47476,-9.26474 2.71069,3.13688 6.92352,5.16861 10.56054,6.10742 9.58064,1.4175 25.02303,-5.07158 40.9401,-21.30499 16.39412,-19.86686 25.68147,-36.63228 41.31864,-57.62052 14.69532,-21.584267 37.99242,-57.745294 27.81124,-81.782096 -10.53214,-23.2658223 -47.93319,-35.250432 -115.09341,-35.477939 z m 14.22461,149.816405 c 5.45878,-0.008 5.99337,5.24791 2.58984,11.09375 -4.22086,7.24967 -13.78127,15.62233 -19.04297,18.52344 -2.39935,-2.79635 -4.4601,-13.00931 -0.39844,-18.78711 4.02712,-5.72867 10.79659,-10.24426 16.85157,-10.83008 z"/>
      <path
         id="g"
         d="m -556.38215,121.94885 c -17.79082,3.02632 -40.03819,64.54438 -16.14818,61.64471 10.51409,-1.27616 21.68884,-5.30205 29.46107,-9.71102 -3.05761,5.20279 -6.58514,14.10056 -11.85262,24.3909 -19.99036,39.05243 -62.17762,124.93033 -90.07812,171.83789 -7.40081,12.44258 -20.41671,45.09593 -28,39.25 -7.96429,-6.13964 -1.49858,-17.39572 8.25,-17.5 -4.57001,-11.59005 -19.87513,-15.05065 -31.61328,3.79883 -4.6953,7.53985 -5.9957,23.27671 -3.13672,29.95117 4.68956,11.9455 15.29755,17.00232 25.17893,15.95711 8.72864,-0.92328 13.9451,-10.0679 18.80045,-18.43684 37.48324,-64.60806 125.7681,-262.31546 136.27062,-281.52027 5.74885,-10.51229 8.69885,-16.91597 2.56798,-19.23093 -4.8722,-1.8397 -9.2155,11.43447 -11.31798,16.98093 -1.57935,-10.23843 -12.85725,-20.05335 -28.38215,-17.41248 z m 8.32425,14.89032 c 4.40526,0.0985 18.64595,6.89919 12.02021,21.08455 -2.50755,5.36853 -5.71563,7.36647 -16.86827,12.33059 -17.28675,7.69445 -16.50857,-10.11422 -12.8423,-18.01257 4.27068,-9.20043 7.98235,-15.61957 17.69036,-15.40257 z"
/>
      <path
         id="n"
         d="m -726.90577,122.95121 c 16.75876,-0.64065 -2.34975,52.6308 6.84264,52.6308 5.07745,0 12.88752,-15.26629 19.75323,-29.59044 5.56422,-11.6088 9.89043,-22.80472 16.53765,-23.12125 2.92207,-0.13914 8.65388,-0.0617 9.24454,3.18437 0.74975,4.12037 -2.25329,8.23069 -2.25329,8.23069 -9.47278,-7.69395 -15.60628,13.07886 -17.92649,17.43541 -9.72561,18.26133 -12.90805,34.32152 -29.01629,31.96072 -16.41702,-2.40606 2.0304,-40.29216 -4.26287,-40.08327 -4.10981,0.13641 -13.4523,40.88011 -36.8242,40.37616 -9.93453,-0.21421 -13.9944,-8.14204 -13.80661,-17.67006 0.29158,-14.79394 6.07015,-14.20998 9.60938,-9.07318 1.11425,1.61722 1.76055,6.11548 6.13276,6.13004 14.15973,0.0471 29.23764,-40.15264 35.96955,-40.40999 z"
/>
      <path
         id="rov"
         d="m -483.44961,123.06518 c -25.7076,0.62222 -34.00344,20.14025 -23.86967,16.65806 -4.05872,9.39987 -14.85188,32.5989 -15.53278,33.96896 -1.44642,2.91038 -3.79867,2.07383 -5.38966,2.78093 -1.59099,0.70711 -6.51253,4.49539 -4.92154,6.43993 1.59099,1.94454 14.29903,1.81593 17.60925,-2.38732 3.61764,-4.5936 12.80219,-25.10076 12.80219,-25.10076 0,0 1.49581,-0.89539 10.043,-0.57626 30.24132,1.12903 -11.95972,24.7698 -0.0669,28.97852 12.01325,4.25134 25.8015,-9.6106 33.29711,-10.43635 5.39487,-0.59432 -1.66618,10.79075 18.83991,10.61397 19.57827,-5.49233 24.60603,-21.64462 34.1194,-37.47747 1.7653,-1.71213 6.20805,-3.82407 11.14058,-5.82219 3.75514,-1.52118 8.69608,-4.38052 10.24912,-3.01676 6.05068,5.31324 -23.77347,38.88598 -9.72395,45.07814 16.97952,7.48353 64.02053,-51.80906 67.70534,-52.85637 3.00834,-0.85504 -0.10228,-6.71193 -3.5353,-6.1857 -3.08734,0.47324 -47.17621,48.50145 -51.79392,47.90498 -6.61871,-0.85494 11.00906,-25.77982 13.99116,-37.80285 1.12074,-4.51854 -2.78723,-9.79562 -5.68339,-10.27894 -13.72056,-2.28973 -21.91992,11.31222 -32.34975,10.95866 -3.96258,-10.8128 -10.23389,-11.98205 -21.92169,-10.86994 -15.14365,1.44095 -21.21519,13.46767 -25.61056,21.31426 -3.65931,6.53257 -5.24642,12.23597 -5.82273,16.12768 -0.45561,3.07672 -3.51667,5.92785 -6.61276,7.73694 -4.47705,2.616 -14.32027,9.1193 -14.49646,7.54783 0,0 11.41694,-11.63187 12.3576,-17.31724 0.27586,-1.66733 -0.71728,-3.67923 -2.11063,-5.01546 -2.5195,-2.41622 -5.64046,-3.79296 -5.64046,-3.79296 0,0 16.19465,-6.83762 16.88809,-16.88816 0.93268,-13.51791 -18.49301,-10.41647 -23.9606,-10.28413 z m -15.87149,24.37668 c 1.56321,-4.72177 3.40728,-7.19607 4.92625,-11.5593 3.62592,-1.74857 5.56341,-3.23175 11.57977,-3.6701 13.08483,-0.95337 11.76945,5.87352 -2.04505,14.9121 -6.58114,-0.84626 -9.81701,0.0422 -14.46097,0.3173 z m 80.77944,-0.91369 c -0.61137,7.07405 -4.77324,17.33681 -11.84377,21.39067 -5.42984,3.11318 -18.6713,8.52967 -18.77161,-0.44955 -0.14721,-13.17902 5.24743,-21.63615 15.90967,-29.22148 7.61591,-4.3462 15.26803,1.77382 14.70571,8.28036 z"
/>
      <path
         id="e"
         d="m -289.53888,144.05319 c 3.78862,-2.96526 7.29983,-9.8787 2.2981,-15.02602 -6.04782,-6.22386 -29.87526,-6.89429 -34.64823,-1.76777 -4.77298,5.12653 -5.12775,14.12246 -4.24264,19.62221 -2.5912,1.89822 -13.18478,5.35457 -19.33832,13.20365 -3.07929,3.92776 -6.4624,6.61227 -4.34976,15.43418 2.40661,10.04942 16.21723,8.65152 34.82815,7.39768 21.28611,-1.43407 45.84529,-1.8484 51.08532,2.50182 9.36917,7.77817 -13.06182,9.52825 -8.13173,15.02602 5.41667,6.04037 33.31099,-5.04562 27.57717,-19.26867 -6.12416,-15.19131 -16.26345,-11.13692 -18.9151,-11.13692 -2.65165,0 -73.71589,9.36916 -77.4282,1.94454 -1.62601,-3.25202 2.46509,-9.86789 7.97439,-13.29652 7.06887,-4.39921 10.55574,-5.05953 16.24402,-5.26503 6.16476,-0.22272 18.71984,3.16941 16.08668,-2.65165 -0.98815,-2.18448 -3.62807,-2.68442 -11.66726,-4.94975 -3.31338,-0.93367 -9.17008,-9.83824 1.76776,-13.08148 15.17891,-4.50079 21.92031,4.94975 18.56155,8.66206 -3.35875,3.71231 -0.70703,5.00369 2.2981,2.65165 z"
/>
      <path
         id="l"
         d="m -551,93.837057 c -9.42539,4.089847 -24.49412,30.482643 -35.68845,51.512753 -13.77203,21.32715 -15.69222,41.67409 -38.13998,37.19435 -3.61043,-0.72051 -3.99683,-8.05933 -1.74977,-12.90679 1.46553,-3.16149 5.36806,-9.98721 9.13972,-2.03255 2.31579,4.88414 3.75962,4.1474 6.86012,0.58936 6.68531,-7.67184 36.1884,-69.109659 45.89902,-77.273133 8.50602,-7.150794 17.95628,1.060169 13.67934,2.91601 z"
/>
    </g>
  </g>
</svg>
